<svg xmlns="http://www.w3.org/2000/svg" viewBox="0 0 57.682 68.641"><path d="M51.6 22.201c.121-1.696.475-3.51.72-5.399.704-5.427 1.597-11.67-.12-16.801h-.24c-1.322 3.743-1.259 8.348-2.158 12.36-.664 2.962-1.773 5.653-3.239 7.56-.529.688-1.059 1.545-1.921 1.801-.663-3.922-4.283-4.943-7.681-6.361-2.129-.888-3.971-2.016-6.118-2.159-.789-.053-1.469.188-2 .231-.532-.044-1.211-.284-2-.231-2.148.144-3.99 1.272-6.119 2.159-3.396 1.418-7.018 2.439-7.681 6.361-.861-.255-1.392-1.113-1.921-1.801-1.466-1.907-2.574-4.599-3.238-7.56-.9-4.013-.836-8.617-2.16-12.36h-.24c-1.718 5.131-.825 11.374-.12 16.801.245 1.891.598 3.703.719 5.399.792 11.052-6.95 23.12-6 28.92.93 7.529 8.396 9.396 14.16 12.359 4.347 2.236 8.312 4.951 13.321 5.16h2.556c5.01-.209 8.976-2.925 13.32-5.16 5.765-2.964 13.229-4.83 14.16-12.359.952-5.801-6.792-17.868-6-28.92zm-22.758 3.745c-2.54.037-5.066-.094-7.16-.505.663-2.052 4.034-1.56 7.08-1.56h.159c3.046 0 6.417-.492 7.079 1.56-2.094.41-4.619.542-7.158.505z" fill="#826550"/></svg>