<svg xmlns="http://www.w3.org/2000/svg" viewBox="0 0 62.398 78.489"><path d="M62.398 42c0-5.213-2.367-7.775-3.599-9.961-.905-1.606-3.977-10.752-4.2-17.64C54.533 9.495 52.907 1.954 51.719 0c-.864 0-1.521 7.781-2.28 11.639-1.428 7.043-3.766 8.935-4.438 9-.758-2.809-4.113-7.363-13.677-7.725a6.572 6.572 0 0 0-.125-.043 4.821 4.821 0 0 0-.126.043c-9.562.36-12.918 4.916-13.675 7.725-.674-.066-3.011-1.957-4.438-9C12.2 7.782 11.544 0 10.679 0 9.491 1.954 7.866 9.495 7.8 14.4c-.226 6.888-3.294 16.032-4.2 17.64C2.368 34.225.001 36.788.001 42c0 3.744 5.199 7.203 5.639 11.398.125 1.223-.031 2.35.12 3.361 2.003 17.483 17.867 21.728 25.438 21.728 7.573 0 23.438-4.244 25.44-21.728.151-1.012-.005-2.139.12-3.361.44-4.194 5.64-7.651 5.64-11.398zm-29.16-15.24c-.687-.135-3.394-.135-4.08 0-1.731.34-5.761.988-5.761-1.08 0-1.068 6.72-2.295 7.801-2.295 1.08 0 7.801 1.228 7.802 2.295 0 2.068-4.029 1.42-5.762 1.08z" fill="#826550"/></svg>