<svg xmlns="http://www.w3.org/2000/svg" viewBox="0 0 51.479 49.479"><path d="M50.897.047h-.24c-2.307 7.693-2.926 17.073-9.358 20.64-1.189-3.354-4.109-4.893-7.439-6.359-2.117-.933-4.547-2.558-6.602-2.641-.496-.02-1.049-.032-1.5.315-.451-.349-1.003-.335-1.5-.315-2.054.083-4.484 1.707-6.601 2.641-3.33 1.468-6.25 3.005-7.439 6.359C3.783 17.121 3.164 7.74.857.047h-.24c-.315.683-.398 1.6-.599 2.4 0 1.92.543 21.462 1.92 28.439 1.24 6.289 6.077 10.83 10.8 13.801 3.29 2.068 8.507 4.838 13.02 4.838s9.728-2.77 13.019-4.838c4.723-2.97 9.561-7.512 10.8-13.801 1.377-6.977 1.92-26.519 1.92-28.439-.2-.801-.283-1.718-.6-2.4zM36.969 28.102c-.245 1.553-1.663 3.386-3.359 3.48-2.978.167-4.507-4.415-7.86-4.38-3.354-.035-4.882 4.547-7.86 4.38-1.696-.096-3.115-1.929-3.359-3.48-.308-1.941.611-4.605 1.68-5.64 1.103-1.067 2.822-.93 4.68-1.2 2.037-.295 3.798-.881 4.859-1.947 0-.038 0-.038 0 0 1.063 1.065 2.823 1.651 4.86 1.947 1.857.27 3.576.133 4.68 1.2 1.068 1.034 1.986 3.698 1.679 5.64z" fill="#826550"/></svg>