<svg xmlns="http://www.w3.org/2000/svg" viewBox="0 0 94.164 88.621"><g fill="#826550"><path d="M87.189 22.424a429.552 429.552 0 0 0-1.68 5.223 42.781 42.781 0 0 1 4.651 19.435c0 14.241-6.951 26.885-17.634 34.732a12.82 12.82 0 0 1 3.14 2.666C86.905 75.876 94.16 62.33 94.16 47.082a46.841 46.841 0 0 0-6.971-24.658zM9.516 70.337c.446 0 .896.015 1.345.024A42.805 42.805 0 0 1 4 47.082C4 23.326 23.326 4 47.081 4c6.78 0 13.198 1.58 18.911 4.383a22.3 22.3 0 0 1 2.439-3.259A46.85 46.85 0 0 0 47.081 0C21.079 0 0 21.079 0 47.082a46.838 46.838 0 0 0 6.235 23.402 33.34 33.34 0 0 1 3.281-.147z"/></g><path d="M53.454 82.042c.437-6.144-.872-14.024.657-19.071 4.527-.076 9.561.354 13.152-.658 8.174-14.845 12.026-34.008 18.416-50.64V9.042c-.675-3.054-3.753-3.702-6.578-4.604h-.656c-10.6 3.43-11.957 16.104-14.467 27.622-15.795-4.143-32.298-.059-32.885 15.125-4.528.076-7.984 1.225-9.865 3.946-.572 6.709 1.569 10.705 6.577 11.839-1.238 5.338-3.641 9.512-7.234 12.493-6.404.613-15.635-1.604-19.071 1.976v2.629c3.151 3.863 12.855 1.178 19.072 1.975 6.593-3.93 8.458-12.588 11.838-19.729 4.674.367 10.865-.781 14.468.656v19.729c-7.826.504-15.446 1.215-19.072 5.92h44.721c-3.255-5.293-12.472-4.625-19.073-6.577zM37.67 47.186c.684-11.704 15.366-11.687 25.648-8.548.103 4.721-.517 10.163 1.314 13.153-7.041-.853-17.077-4.402-26.962-4.605z" fill="#826550"/></svg>