<svg xmlns="http://www.w3.org/2000/svg" viewBox="0 0 94.164 91.992"><circle cx="47.082" cy="17.279" r="9.106" fill="#826550"/><path d="M67.458 26.385H26.705a2.825 2.825 0 0 0-2.817 2.817v4.47a2.826 2.826 0 0 0 2.817 2.818h.828v45.394h-.828a2.825 2.825 0 0 0-2.817 2.818v4.471a2.825 2.825 0 0 0 2.817 2.818h40.753a2.825 2.825 0 0 0 2.817-2.818v-4.471c0-1.55-1.27-2.818-2.817-2.818h-.826V36.491h.826a2.825 2.825 0 0 0 2.817-2.818v-4.47a2.825 2.825 0 0 0-2.817-2.818zM33.662 36.491h13.199L33.662 49.689V36.491zm26.839 45.394H47.027L60.501 68.41v13.475zm0-28.717l-26.839 26.84V64.932l26.839-26.839v15.075z" fill="#826550"/><path d="M47.081 0C21.079 0 0 21.079 0 47.081 0 62.509 7.421 76.203 18.888 84.79v-.088c0-1.505.438-2.903 1.177-4.099C10.277 72.701 4 60.613 4 47.081 4 23.326 23.326 4 47.081 4c23.754 0 43.081 19.326 43.081 43.081 0 13.53-6.275 25.618-16.063 33.522a7.77 7.77 0 0 1 1.178 4.099v.086c11.466-8.587 18.886-22.28 18.886-37.707C94.162 21.079 73.083 0 47.081 0z" fill="#826550"/></svg>