<svg xmlns="http://www.w3.org/2000/svg" viewBox="0 0 44.979 12.9"><path d="M22.489 8.24c1.151 1.709 3.639 4.447 8.78 4.65 7.161.276 13.709-5.218 13.709-7.281-2.758 2.494-7.367 2.717-9.931 1.695-3.778-1.509-3.12-4.494-5.874-6.447-1.562-1.11-3.784-1.176-5.687 0a5.181 5.181 0 0 0-.997.811 5.144 5.144 0 0 0-.997-.811c-1.903-1.176-4.125-1.11-5.689 0C13.05 2.81 13.708 5.795 9.93 7.304 7.367 8.327 2.758 8.103 0 5.609c0 2.063 6.547 7.558 13.709 7.281 5.143-.203 7.628-2.941 8.78-4.65z" fill="#826550"/></svg>