<svg xmlns="http://www.w3.org/2000/svg" viewBox="0 0 141.666 139.541"><g fill="#fff"><path d="M71.833 21.463V1a1 1 0 1 0-2 0v20.463c.334-.007.665-.025 1-.025.335 0 .666.018 1 .025zM45.768 28.437a47.737 47.737 0 0 1 1.733-.997L37.263 9.741a.995.995 0 0 0-1.366-.364.998.998 0 0 0-.364 1.366l10.235 17.694zM10.502 34.727a.998.998 0 0 0 .362 1.366l17.682 10.271a46.22 46.22 0 0 1 .999-1.73l-17.677-10.27a1 1 0 0 0-1.366.363zM106.41 8.521a.998.998 0 0 0-1.366.362l-10.804 18.6c.583.324 1.162.653 1.73 1l10.802-18.596a.997.997 0 0 0-.362-1.366zM131.782 35.668a.998.998 0 0 0 .364-1.366.994.994 0 0 0-1.366-.364l-18.613 10.768c.346.568.674 1.149.997 1.733l18.618-10.771zM22.5 69.771c0-.335.018-.666.025-1H1a1 1 0 1 0 0 2h21.525c-.007-.334-.025-.666-.025-1zM140.666 68.771h-21.525c.007.334.025.665.025 1s-.019.666-.025 1h21.525a1 1 0 1 0 0-2zM130.802 103.448l-17.682-10.27a46.284 46.284 0 0 1-1 1.731l17.678 10.269a.999.999 0 0 0 1.366-.362 1 1 0 0 0-.362-1.368zM9.884 103.873a1 1 0 1 0 1.002 1.73l18.613-10.768a47.737 47.737 0 0 1-.997-1.733L9.884 103.873zM95.898 111.104c-.568.346-1.149.674-1.733.997l10.238 17.698a1 1 0 1 0 1.73-1.002l-10.235-17.693zM34.893 129.654a.998.998 0 1 0 1.728 1.004l10.804-18.6a48.546 48.546 0 0 1-1.73-1l-10.802 18.596zM69.833 118.078v20.463a1 1 0 1 0 2 0v-20.463c-.334.007-.665.025-1 .025-.335.001-.666-.018-1-.025zM104.744 51.887a1.502 1.502 0 0 0-1.502-2.598L74.81 65.736a5.646 5.646 0 0 0-3.977-1.633 5.649 5.649 0 0 0-3.971 1.627L46.519 53.912a1.5 1.5 0 0 0-1.508 2.594l20.347 11.82a5.684 5.684 0 0 0-.192 1.444 5.667 5.667 0 1 0 11.334 0c0-.497-.07-.976-.191-1.435l28.435-16.448zM75.343 66.349c-.02-.025-.037-.052-.058-.077.021.025.038.051.058.077zm.393.589c-.007-.012-.015-.023-.021-.035l.021.035zm-9.78-.044l-.022.037.022-.037zm.426-.624l-.049.065.049-.065zm4.451 6.168c-1.471 0-2.667-1.196-2.667-2.667s1.196-2.667 2.667-2.667c1.471 0 2.667 1.196 2.667 2.667s-1.196 2.667-2.667 2.667z"/></g></svg>