<svg xmlns="http://www.w3.org/2000/svg" viewBox="0 0 44.658 104.782"><path d="M43.39 0h-.118c-2.816 21.525-5.382 22.56-6.961 22.68-1.427.109-3.644-1.772-4.921-2.52-1.489-.873-4.077-2.545-9.061-2.545s-7.572 1.673-9.061 2.545c-1.277.748-3.494 2.629-4.92 2.52-1.58-.119-4.144-1.154-6.959-22.68H1.27C-.803 12.208-.291 50.203 2.469 63.6c2.61 18.52 10.11 35.104 13.439 39.6.683 1.039 3.533 1.566 6.421 1.582 2.887-.016 5.737-.543 6.421-1.582 3.329-4.495 10.829-21.08 13.439-39.6C44.947 50.204 45.462 12.208 43.39 0zM22.329 28.151c-3.396 0-6.688.183-10.142.529 1.135-1.754 8.991-3.24 10.142-3.449 1.149.209 9.006 1.695 10.141 3.449a100.142 100.142 0 0 0-10.141-.529z" fill="#826550"/></svg>