<svg xmlns="http://www.w3.org/2000/svg" viewBox="0 0 225.814 30.039"><path fill="#fff" d="M0 13.173l3.494-3.494 3.494 3.494-3.494 3.494zM215.121 13.18l3.493-3.492 3.495 3.494-3.493 3.493z"/><g fill="#636466"><path d="M28.602 13.297h1.273V8.209h2.002V6.936h-3.275zM37.705 14.231V6.478c0-1.097-.653-2.032-1.567-2.487.182.368.293.776.293 1.213v7.753c0 .865-.375 1.619-1.016 2.146.563.602 1.016 1.28 1.016 2.259v8.619c0 1.505-1.279 2.785-2.785 2.785h-8.287v1.273h9.561c1.505 0 2.785-1.279 2.785-2.785v-8.619c0-.979-.451-1.656-1.017-2.26a2.727 2.727 0 0 0 1.017-2.144z"/><path d="M28.602 24.211h1.273v-5.125h2.002v-1.273h-3.275z"/></g><g fill="#636466"><path d="M48.778 24.211h1.273V8.209h2.002V6.936h-3.275z"/><path d="M56.313 3.991c.184.368.294.776.294 1.213v20.777c0 1.505-1.279 2.785-2.785 2.785h-6.773c-.439 0-.847-.112-1.215-.295.455.916 1.39 1.568 2.486 1.568h6.775c1.505 0 2.785-1.279 2.785-2.785V6.478c0-1.097-.652-2.032-1.567-2.487z"/></g><g fill="#636466"><path d="M68.953 13.297h1.274V8.209h2.001V6.936h-3.275zM76.438 18.823a2.73 2.73 0 0 0 1.58-2.484v-9.86c0-1.11-.646-2.056-1.567-2.504.183.372.295.786.295 1.231v9.861a2.73 2.73 0 0 1-1.581 2.483l1.882 11.218h-3.458l.214 1.272h4.517l-1.882-11.217zM70.685 17.813h-1.732v10.954H65.71v1.273h4.517V19.086h.672z"/></g><g fill="#636466"><path d="M88.527 24.211h1.274V8.209h2.002V6.936h-3.276z"/><path d="M96.063 3.991c.183.368.293.776.293 1.213v20.777c0 1.505-1.278 2.785-2.785 2.785h-6.775c-.438 0-.846-.112-1.213-.294.454.915 1.389 1.567 2.485 1.567h6.775c1.505 0 2.785-1.279 2.785-2.785V6.478c.002-1.097-.651-2.032-1.565-2.487z"/></g><g fill="#636466"><path d="M108.703 24.211h1.273V8.209h2.002V6.936h-3.275z"/><path d="M116.239 3.991c.182.368.294.776.294 1.213v20.777c0 1.505-1.28 2.785-2.785 2.785h-8.288v1.273h9.561c1.505 0 2.784-1.279 2.784-2.785V6.478c0-1.097-.652-2.032-1.566-2.487z"/></g><path fill="#636466" d="M129.105 3.693v25.074h-3.244v1.273h4.517V3.693z"/><g fill="#636466"><path d="M149.205 3.693v25.074h-3.61l.366 1.273h4.517V3.693zM141.375 17.249v11.518h-3.242v1.273h4.515v-8.364z"/></g><g fill="#636466"><path d="M161.094 19.086h3.732v-1.273h-5.007c-.44 0-.852-.108-1.222-.291a2.774 2.774 0 0 0 2.497 1.564zM162.823 20.78l-1.271.297v3.134h1.271zM169.086 3.991c.183.368.294.776.294 1.213v5.345l-3.281.759v1.568l4.555-1.054V6.478c-.001-1.097-.653-2.032-1.568-2.487z"/><path d="M169.086 14.869c.183.368.294.776.294 1.213v9.898c0 1.505-1.279 2.785-2.785 2.785h-6.774c-.438 0-.847-.112-1.215-.295.454.916 1.391 1.568 2.488 1.568h6.774c1.506 0 2.784-1.279 2.784-2.785v-9.9c.001-1.095-.65-2.029-1.566-2.484zM161.552 6.936v6.361h1.271V8.209h2.003V6.936z"/></g><g fill="#636466"><path d="M182.142 17.813h-.414v10.954h-3.245v1.273h4.518v-9.489zM191.394 3.693h-1.682l-3.807 11.862 4.215 13.212h-3.67l.352 1.123.038.15h4.554l-4.215-13.211z"/></g><path fill="#636466" d="M202.016 3.693v25.074h-3.244v1.273h4.517V3.693zM221.047 19.092l3.493-3.494 1.273 1.272-3.493 3.495zM5.914 19.087l3.494-3.494 1.273 1.273-3.493 3.494z"/><g fill="#fff"><path d="M34.012 10.539c0 .866-.376 1.619-1.016 2.146.563.602 1.016 1.279 1.016 2.257v8.62c0 1.506-1.28 2.785-2.785 2.785h-9.559V0h9.559c1.505 0 2.785 1.242 2.785 2.786v7.753zm-4.554-6.023h-3.275v6.361h3.275V4.516zm0 10.879h-3.275v6.398h3.275v-6.398zM51.402 0c1.506 0 2.785 1.242 2.785 2.786v20.776c0 1.506-1.279 2.785-2.785 2.785h-6.774c-1.543 0-2.786-1.279-2.786-2.785V2.786A2.779 2.779 0 0 1 44.627 0h6.775zm-1.769 4.516h-3.275v17.277h3.275V4.516zM70.11 26.347l-1.845-10.952h-1.731v10.952h-4.517V0h9.561c1.505 0 2.748 1.242 2.748 2.786v9.861a2.734 2.734 0 0 1-1.581 2.484l1.882 11.216H70.11zm-.301-21.831h-3.274v6.361h3.274V4.516zM91.152 0c1.506 0 2.784 1.242 2.784 2.786v20.776c0 1.506-1.278 2.785-2.784 2.785h-6.774c-1.543 0-2.785-1.279-2.785-2.785V2.786A2.777 2.777 0 0 1 84.377 0h6.775zm-1.769 4.516h-3.275v17.277h3.275V4.516zM111.328 0c1.505 0 2.784 1.242 2.784 2.786v20.776c0 1.506-1.278 2.785-2.784 2.785h-9.562V0h9.562zm-1.77 4.516h-3.274v17.277h3.274V4.516zM122.169 0h4.517v26.347h-4.517V0zM146.784 0v26.347h-4.517l-3.312-11.517v11.517h-4.518V0h4.479l3.312 10.803V0h4.556zM164.176 10.877c1.504 0 2.785 1.242 2.785 2.785v9.899c0 1.506-1.281 2.785-2.785 2.785H157.4c-1.544 0-2.784-1.279-2.784-2.785v-5.42l4.516-1.055v4.705h3.274v-6.398H157.4a2.778 2.778 0 0 1-2.784-2.786V2.786A2.778 2.778 0 0 1 157.4 0h6.775c1.504 0 2.785 1.242 2.785 2.786V8.13l-4.556 1.054V4.516h-3.274v6.361h5.046zM183.485 13.136l4.217 13.211h-4.555l-.038-.15-3.388-10.802h-.415v10.952h-4.516V0h4.516v10.877h.34L183.109 0h4.593l-4.217 13.136zM195.08 0h4.516v26.347h-4.516V0z"/></g></svg>