<svg xmlns="http://www.w3.org/2000/svg" viewBox="0 0 369.477 100.875"><g fill="#fff"><path d="M119.858 11.427C127.044 8.998 127.591 0 120.509 0c-1.948 0-4.275 1.369-5.884 4.174l-9.579 16.559a13.85 13.85 0 0 1-1.369 2.019c-2.464-3.387-1.743-8.451 1.711-10.674l-1.438-1.813c-7.458 4.755-5.269 18.475 7.185 18.475 10.64-.001 15.566-12.763 8.723-17.313zm-8.792 14.575c-2.121 0-3.799-.479-5.131-1.232.613-.718 1.23-1.607 1.777-2.532l5.986-10.367.958.103c8.35 1.746 5.032 14.028-3.59 14.028zm3.832-16.217l2.873-4.927c2.601-4.482 5.919-1.847 4.14 1.505-1.368 2.567-3.387 3.353-7.013 3.422z"/><path d="M259.209 18.954l-.237.274c-1.985 2.326-4.347 4.243-6.502 4.995.581-.924 1.026-1.916 1.472-2.669l3.935-6.739c3.319-5.645-2.053-7.527-5.68-4.276l.719-1.233h-3.559l-5.563 9.655a.067.067 0 0 1-.012-.006l-.24.274c-1.607 1.745-3.593 2.6-5.371 2.634l3.354-5.781c2.155-3.729.172-7.253-3.183-7.253-2.736 0-4.856 1.095-6.91 4.654l-1.745 3.044-1.452 2.486-.19.217c-2.565 2.977-5.063 5.337-6.638 5.337-.787 0-1.231-.547-.411-1.95l5.133-8.998c1.539-2.703.069-4.653-1.916-4.653-1.539 0-3.183.855-4.961 2.704l5.68-9.888h-3.558l-9.924 17.215-.204.233a22.15 22.15 0 0 1-4.277 3.866c1.132-3.387.893-8.587 3.08-13.137l-2.669-1.438c-1.471 2.02-4.686 6.672-7.902 10.435l-.239.274c-2.565 2.977-5.064 5.337-6.637 5.337-.787 0-1.232-.547-.411-1.95l3.559-6.227c1.231-2.155.649-3.421-.514-4.824l-1.984-2.394c-.514-.651-.514-1.369.204-2.053l-1.85-2.019c-2.02 1.813-2.189 3.832-.924 5.474l.308.411c-1.573 2.223-3.694 5.234-6.021 7.971l-.238.274c-2.566 2.977-5.852 5.337-8.349 5.337-2.189 0-3.489-1.368-1.848-4.242l.342-.616c2.292.958 6.604.512 9.272-4.105l.513-.89c1.916-3.284.068-5.748-2.841-5.748-2.872 0-5.165 1.505-6.671 4.106l-3.447 5.915-.214.244c-1.607 1.779-3.626 2.6-5.371 2.634l3.355-5.781c.89-1.574 1.333-2.942 1.333-4.071 0-1.813-1.23-3.182-3.217-3.182-.854 0-1.607.308-2.326.787l4.518-7.835h-3.627l-9.975 17.234-.188.214c-2.566 2.977-5.063 5.337-6.638 5.337-.786 0-1.231-.547-.41-1.95l3.558-6.227c1.231-2.155.649-3.421-.513-4.824l-1.984-2.394c-.514-.651-.514-1.369.205-2.053l-1.847-2.019c-2.02 1.813-2.19 3.832-.925 5.474l.309.411c-1.574 2.223-3.695 5.234-6.02 7.971l-.239.274c-2.566 2.977-5.063 5.337-6.637 5.337-.788 0-1.233-.547-.412-1.95l5.749-10.058h-2.02c.138-1.506-1.401-3.593-3.729-3.593-1.916 0-4.583 1.505-6.09 4.106l-4.994 8.621c-1.507 2.635-.444 5.064 2.429 5.064 1.437 0 3.216-.924 4.927-2.327.171 1.369 1.267 2.327 3.08 2.327 2.94 0 6.328-3.147 9.271-6.569 1.711-1.984 3.045-3.763 5.885-7.629l.479.582c.444.582.615 1.3.205 2.018l-3.764 6.535c-1.504 2.635-.443 5.064 2.429 5.064 2.063 0 4.345-1.549 6.537-3.652l-.001.025c0 2.429 1.814 3.797 4.106 3.797 1.982 0 4.275-1.026 6.056-3.318.271.034.512.034.786.034 1.321 0 3.118-.504 4.725-1.404-.187 2.568 1.677 4.518 4.821 4.518 4.037 0 8.039-3.147 10.982-6.569 1.712-1.984 3.045-3.763 5.885-7.629l.479.582c.444.582.615 1.3.205 2.018l-3.764 6.535c-1.506 2.635-.444 5.064 2.429 5.064 2.943 0 6.33-3.147 9.272-6.569h-.001.001c2.018-2.326 3.798-4.824 5.063-6.5-1.401 3.696-.649 10.333-4.036 10.333-1.196 0-1.678-1.3-1.678-1.3l-2.224 1.164s.65 2.874 3.9 2.874c.342 0 .648-.034.99-.068.036 0 .069-.034.104-.034 1.872-.248 3.734-1.136 5.466-2.364l-1.224 2.124h3.593l5.404-9.408c5.476-6.877 7.903-5.987 6.363-3.353l-4.618 8.04c-1.506 2.635-.444 5.064 2.43 5.064 2.066 0 4.354-1.556 6.551-3.667-.008 4.537 6.294 5.422 10.145.553h.788c1.073 0 2.464-.334 3.811-.944l-6.479 11.242h3.593l10.641-18.509c3.968-5.406 6.467-3.421 5.543-1.813l-5.37 9.306c-.583 1.027-1.918 1.334-2.567 0l-2.018.958s.649 2.874 3.899 2.874h.206c5.166-.103 8.553-3.182 11.461-6.569-.21-.556-.826-1.104-1.34-1.24zm-81.016-4.995c2.053-3.524 5.678-2.942 3.558.752l-.513.89c-1.711 2.908-4.004 2.84-5.337 2.361l2.292-4.003zm-45.605 5.611c-2.155 3.386-4.277 4.995-5.749 4.995-.787 0-1.23-.547-.41-1.95l4.963-8.655c1.915-3.319 5.712-2.463 3.968.752l-2.772 4.858zm26.788 4.858c-.788 0-1.438-.479-1.438-1.369 0-.513.206-1.094.617-1.847l1.266-2.189c.274 1.539.958 2.874 2.258 3.694-.719 1.163-1.813 1.711-2.703 1.711zm3.728-3.456c-.923-.684-1.506-1.778-1.506-3.216 0-2.532 2.465-6.671 4.481-6.671.787 0 1.335.582 1.335 1.54 0 .581-.205 1.3-.685 2.121l-3.625 6.226zm73.08-1.778h-.17c-1.163 0-2.089.958-2.089 2.121 0 .445.138.855.343 1.198l-.034.068c-1.676 2.873-5.747 2.326-3.626-1.369l2.703-4.688 1.71-2.908c2.497-4.242 5.919-2.566 3.764 1.129l-2.601 4.449z"/></g><path fill="#fff" d="M.004 73.272l5.717-5.715 5.716 5.717-5.717 5.715zM351.983 73.25l5.716-5.715 5.716 5.717-5.717 5.714z"/><g fill="#636466"><path d="M46.799 73.48h2.083v-8.324h3.275v-2.084h-5.358zM61.691 75.009V62.324c0-1.795-1.067-3.325-2.564-4.069.298.602.48 1.27.48 1.986v12.686a4.473 4.473 0 0 1-1.662 3.511c.924.985 1.662 2.095 1.662 3.694v14.104c0 2.463-2.094 4.557-4.558 4.557h-13.56v2.084h15.643c2.464 0 4.558-2.094 4.558-4.557V82.215c0-1.602-.738-2.709-1.662-3.695a4.47 4.47 0 0 0 1.663-3.511z"/><path d="M46.799 91.34h2.083v-8.385h3.275v-2.084h-5.358z"/></g><g fill="#636466"><path d="M79.81 91.34h2.083V65.156h3.275v-2.084H79.81z"/><path d="M92.139 58.254c.298.602.479 1.27.479 1.986v33.994c0 2.463-2.094 4.557-4.557 4.557H76.978a4.477 4.477 0 0 1-1.987-.48c.744 1.496 2.274 2.564 4.07 2.564h11.085c2.463 0 4.557-2.094 4.557-4.557V62.324c-.001-1.795-1.068-3.325-2.564-4.07z"/></g><g fill="#636466"><path d="M112.82 73.48h2.083v-8.324h3.276v-2.084h-5.359zM125.065 82.523a4.469 4.469 0 0 0 2.586-4.064V62.324a4.558 4.558 0 0 0-2.566-4.098c.299.608.483 1.285.483 2.014v16.135a4.466 4.466 0 0 1-2.586 4.064l3.079 18.352h-5.658l.351 2.084h7.392l-3.081-18.352zM115.653 80.871h-2.833v17.92h-5.306v2.084h7.389v-17.92h1.101z"/></g><g fill="#636466"><path d="M144.848 91.34h2.083V65.156h3.275v-2.084h-5.358z"/><path d="M157.177 58.254c.299.602.48 1.27.48 1.986v33.994c0 2.463-2.094 4.557-4.557 4.557h-11.086a4.468 4.468 0 0 1-1.985-.48c.743 1.496 2.273 2.564 4.068 2.564h11.086c2.463 0 4.557-2.094 4.557-4.557V62.324c0-1.795-1.067-3.325-2.563-4.07z"/></g><g fill="#636466"><path d="M177.858 91.34h2.083V65.156h3.276v-2.084h-5.359z"/><path d="M190.188 58.254c.298.602.48 1.27.48 1.986v33.994c0 2.463-2.094 4.557-4.557 4.557H172.55v2.084h15.644c2.463 0 4.557-2.094 4.557-4.557V62.324c0-1.795-1.067-3.325-2.563-4.07z"/></g><path fill="#636466" d="M211.239 57.766v41.025h-5.306v2.084h7.389V57.766z"/><g fill="#636466"><path d="M244.126 57.766v41.025h-5.906l.599 2.084h7.39V57.766zM231.316 79.947v18.844h-5.306v2.084h7.389V87.189z"/></g><g fill="#636466"><path d="M263.578 82.955h6.108v-2.084h-8.19a4.532 4.532 0 0 1-1.998-.477 4.53 4.53 0 0 0 4.08 2.561zM266.41 85.725l-2.083.486v5.129h2.083zM276.656 58.254c.298.602.48 1.27.48 1.986v8.744l-5.368 1.242v2.565l7.45-1.726v-8.743c.002-1.793-1.066-3.323-2.562-4.068z"/><path d="M276.656 76.052c.298.602.48 1.268.48 1.985v16.197c0 2.463-2.095 4.557-4.558 4.557h-11.085a4.484 4.484 0 0 1-1.987-.48c.744 1.496 2.274 2.564 4.07 2.564h11.085c2.463 0 4.558-2.094 4.558-4.557V80.121c.001-1.795-1.066-3.325-2.563-4.069zM264.327 63.072V73.48h2.083v-8.324h3.276v-2.084z"/></g><g fill="#636466"><path d="M298.017 80.871h-.678v17.92h-5.307v2.084h7.39V85.352zM313.155 57.766h-2.752l-6.228 19.41 6.897 21.615h-6.006l.577 1.838.061.246h7.451l-6.897-21.615z"/></g><path fill="#636466" d="M330.535 57.766v41.025h-5.306v2.084h7.389V57.766zM361.648 82.923l5.715-5.717 2.084 2.083-5.715 5.717zM9.674 82.952l5.717-5.717 2.084 2.084-5.717 5.717z"/><g fill="#fff"><path d="M55.649 68.967a4.477 4.477 0 0 1-1.662 3.512c.924.984 1.662 2.094 1.662 3.693v14.104c0 2.463-2.094 4.557-4.558 4.557H35.45V51.725h15.643c2.464 0 4.558 2.031 4.558 4.558v12.685h-.002zm-7.451-9.853H42.84v10.407h5.358V59.114zm0 17.798H42.84v10.469h5.358V76.912zM84.104 51.725c2.463 0 4.557 2.031 4.557 4.558v33.993c0 2.464-2.094 4.558-4.557 4.558H73.019c-2.525 0-4.559-2.094-4.559-4.558V56.282a4.548 4.548 0 0 1 4.559-4.558h11.085zm-2.895 7.389h-5.357v28.267h5.357V59.114zM114.712 94.832l-3.018-17.92h-2.833v17.92h-7.39V51.725h15.643c2.463 0 4.495 2.031 4.495 4.558v16.135a4.463 4.463 0 0 1-2.586 4.063l3.079 18.352h-7.39zm-.492-35.718h-5.358v10.407h5.358V59.114zM149.142 51.725c2.463 0 4.557 2.031 4.557 4.558v33.993c0 2.464-2.094 4.558-4.557 4.558h-11.086c-2.525 0-4.558-2.094-4.558-4.558V56.282a4.548 4.548 0 0 1 4.558-4.558h11.086zm-2.895 7.389h-5.357v28.267h5.357V59.114zM182.152 51.725c2.463 0 4.557 2.031 4.557 4.558v33.993c0 2.464-2.094 4.558-4.557 4.558H166.51V51.725h15.642zm-2.894 7.389H173.9v28.267h5.357V59.114zM199.891 51.725h7.39v43.107h-7.39V51.725zM240.167 51.725v43.107h-7.39l-5.42-18.843v18.843h-7.391V51.725h7.328l5.42 17.674V51.725h7.453zM268.621 69.521c2.463 0 4.558 2.033 4.558 4.558v16.196c0 2.464-2.095 4.558-4.558 4.558h-11.085c-2.524 0-4.558-2.094-4.558-4.558v-8.866l7.39-1.726v7.697h5.358V76.912h-8.19a4.549 4.549 0 0 1-4.558-4.559V56.282a4.547 4.547 0 0 1 4.558-4.558h11.085c2.463 0 4.558 2.031 4.558 4.558v8.743l-7.451 1.726v-7.637h-5.358v10.407h8.251zM300.216 73.217l6.897 21.615h-7.451l-.061-.246-5.543-17.674h-.679v17.92h-7.39V51.725h7.39v17.797h.556l5.666-17.797h7.513l-6.898 21.492zM319.187 51.725h7.39v43.107h-7.39V51.725z"/></g></svg>