<?xml version="1.0" encoding="iso-8859-1"?>
<!-- Generator: Adobe Illustrator 21.1.0, SVG Export Plug-In . SVG Version: 6.00 Build 0)  -->
<svg version="1.1" id="Layer_1" xmlns="http://www.w3.org/2000/svg" xmlns:xlink="http://www.w3.org/1999/xlink" x="0px" y="0px"
	 viewBox="0 0 94.164 91.992" style="enable-background:new 0 0 94.164 91.992;" xml:space="preserve">
<circle style="fill:#826550;" cx="47.082" cy="17.279" r="9.106"/>
<path style="fill:#826550;" d="M67.458,26.385H47.082H26.705c-1.55,0-2.817,1.268-2.817,2.817v4.47c0,1.55,1.268,2.818,2.817,2.818
	h0.828v45.394h-0.828c-1.55,0-2.817,1.268-2.817,2.818v4.471c0,1.552,1.268,2.818,2.817,2.818h40.753
	c1.551,0,2.817-1.269,2.817-2.818v-4.471c0-1.55-1.27-2.818-2.817-2.818h-0.826V36.491h0.826c1.551,0,2.817-1.268,2.817-2.818v-4.47
	C70.275,27.653,69.009,26.385,67.458,26.385z M33.662,36.491h13.199L33.662,49.689V36.491z M60.501,81.885H47.027L60.501,68.41
	V81.885z M60.501,53.168l-26.839,26.84V64.932l26.839-26.839V53.168z"/>
<path style="fill:#826550;" d="M47.081,0C21.079,0,0,21.079,0,47.081C0,62.509,7.421,76.203,18.888,84.79v-0.088
	c0-1.505,0.438-2.903,1.177-4.099C10.277,72.701,4,60.613,4,47.081C4,23.326,23.326,4,47.081,4
	c23.754,0,43.081,19.326,43.081,43.081c0,13.53-6.275,25.618-16.063,33.522c0.738,1.193,1.178,2.594,1.178,4.099v0.086
	c11.466-8.587,18.886-22.28,18.886-37.707C94.162,21.079,73.083,0,47.081,0z"/>
</svg>
