<?xml version="1.0" encoding="iso-8859-1"?>
<!-- Generator: Adobe Illustrator 21.1.0, SVG Export Plug-In . SVG Version: 6.00 Build 0)  -->
<svg version="1.1" id="Layer_1" xmlns="http://www.w3.org/2000/svg" xmlns:xlink="http://www.w3.org/1999/xlink" x="0px" y="0px"
	 viewBox="0 0 57.682 68.641" style="enable-background:new 0 0 57.682 68.641;" xml:space="preserve">
<path style="fill:#826550;" d="M51.6,22.201c0.121-1.696,0.475-3.51,0.72-5.399c0.704-5.427,1.597-11.67-0.12-16.801
	c-0.08,0-0.16,0-0.24,0c-1.322,3.743-1.259,8.348-2.158,12.36c-0.664,2.962-1.773,5.653-3.239,7.56
	c-0.529,0.688-1.059,1.545-1.921,1.801c-0.663-3.922-4.283-4.943-7.681-6.361c-2.129-0.888-3.971-2.016-6.118-2.159
	c-0.789-0.053-1.469,0.188-2,0.231c-0.532-0.044-1.211-0.284-2-0.231c-2.148,0.144-3.99,1.272-6.119,2.159
	c-3.396,1.418-7.018,2.439-7.681,6.361c-0.861-0.255-1.392-1.113-1.921-1.801c-1.466-1.907-2.574-4.599-3.238-7.56
	c-0.9-4.013-0.836-8.617-2.16-12.36c-0.08,0-0.16,0-0.24,0c-1.718,5.131-0.825,11.374-0.12,16.801
	c0.245,1.891,0.598,3.703,0.719,5.399c0.792,11.052-6.95,23.12-6,28.92c0.93,7.529,8.396,9.396,14.16,12.359
	c4.347,2.236,8.312,4.951,13.321,5.16c0.426,0,0.853,0,1.278,0c0,0,0,0,0.001,0c0.426,0,0.852,0,1.277,0
	c5.01-0.209,8.976-2.925,13.32-5.16c5.765-2.964,13.229-4.83,14.16-12.359C58.552,45.32,50.808,33.253,51.6,22.201z M28.842,25.946
	L28.842,25.946L28.842,25.946L28.842,25.946L28.842,25.946c-2.54,0.037-5.066-0.094-7.16-0.505c0.663-2.052,4.034-1.56,7.08-1.56
	c0.026,0,0.053,0,0.08,0c0.026,0,0.053,0,0.079,0c3.046,0,6.417-0.492,7.079,1.56C33.906,25.851,31.381,25.983,28.842,25.946z"/>
</svg>
