<?xml version="1.0" encoding="iso-8859-1"?>
<!-- Generator: Adobe Illustrator 21.1.0, SVG Export Plug-In . SVG Version: 6.00 Build 0)  -->
<svg version="1.1" id="Layer_1" xmlns="http://www.w3.org/2000/svg" xmlns:xlink="http://www.w3.org/1999/xlink" x="0px" y="0px"
	 viewBox="0 0 512 512" style="enable-background:new 0 0 512 512;" xml:space="preserve">
<path style="fill:#FFFFFF;" d="M480,0H32C14.312,0,0,14.312,0,32v448c0,17.688,14.311,32,32,32h448c17.688,0,32-14.313,32-32V32
	C512,14.312,497.688,0,480,0z M192,256c0,0,5.061-64,64-64c58.938,0,64,64,64,64s1.844,64-64,64C190.156,320,192,256,192,256z
	 M448,448H64V224h64h4.529c-2.654,10.281-4.529,20.875-4.529,32c0,70.688,57.311,128,128,128c70.688,0,128-57.313,128-128
	c0-11.125-1.875-21.719-4.531-32H384h64V448z M448,160h-96V64h96V160z"/>
</svg>
