<?xml version="1.0" encoding="iso-8859-1"?>
<!-- Generator: Adobe Illustrator 21.1.0, SVG Export Plug-In . SVG Version: 6.00 Build 0)  -->
<svg version="1.1" id="Layer_1" xmlns="http://www.w3.org/2000/svg" xmlns:xlink="http://www.w3.org/1999/xlink" x="0px" y="0px"
	 viewBox="0 0 51.479 49.479" style="enable-background:new 0 0 51.479 49.479;" xml:space="preserve">
<path style="fill:#826550;" d="M50.897,0.047c-0.08,0-0.16,0-0.24,0c-2.307,7.693-2.926,17.073-9.358,20.64
	c-1.189-3.354-4.109-4.893-7.439-6.359c-2.117-0.933-4.547-2.558-6.602-2.641c-0.496-0.02-1.049-0.032-1.5,0.315
	c-0.451-0.349-1.003-0.335-1.5-0.315c-2.054,0.083-4.484,1.707-6.601,2.641c-3.33,1.468-6.25,3.005-7.439,6.359
	C3.783,17.121,3.164,7.74,0.857,0.047c-0.08,0-0.16,0-0.24,0c-0.315,0.683-0.398,1.6-0.599,2.4c0,1.92,0.543,21.462,1.92,28.439
	c1.24,6.289,6.077,10.83,10.8,13.801c3.29,2.068,8.507,4.838,13.02,4.838c4.513,0,9.728-2.77,13.019-4.838
	c4.723-2.97,9.561-7.512,10.8-13.801c1.377-6.977,1.92-26.519,1.92-28.439C51.297,1.646,51.214,0.729,50.897,0.047z M36.969,28.102
	c-0.245,1.553-1.663,3.386-3.359,3.48c-2.978,0.167-4.507-4.415-7.86-4.38c-3.354-0.035-4.882,4.547-7.86,4.38
	c-1.696-0.096-3.115-1.929-3.359-3.48c-0.308-1.941,0.611-4.605,1.68-5.64c1.103-1.067,2.822-0.93,4.68-1.2
	c2.037-0.295,3.798-0.881,4.859-1.947c0-0.038,0-0.038,0,0c1.063,1.065,2.823,1.651,4.86,1.947c1.857,0.27,3.576,0.133,4.68,1.2
	C36.358,23.496,37.276,26.16,36.969,28.102z"/>
</svg>
