<?xml version="1.0" encoding="iso-8859-1"?>
<!-- Generator: Adobe Illustrator 21.1.0, SVG Export Plug-In . SVG Version: 6.00 Build 0)  -->
<svg version="1.1" id="Layer_1" xmlns="http://www.w3.org/2000/svg" xmlns:xlink="http://www.w3.org/1999/xlink" x="0px" y="0px"
	 viewBox="0 0 44.979 12.9" style="enable-background:new 0 0 44.979 12.9;" xml:space="preserve">
<path style="fill:#826550;" d="M22.489,8.24c1.151,1.709,3.639,4.447,8.78,4.65c7.161,0.276,13.709-5.218,13.709-7.281
	c-2.758,2.494-7.367,2.717-9.931,1.695c-3.778-1.509-3.12-4.494-5.874-6.447c-1.562-1.11-3.784-1.176-5.687,0
	C23.145,1.07,22.8,1.342,22.489,1.668c-0.312-0.326-0.655-0.599-0.997-0.811c-1.903-1.176-4.125-1.11-5.689,0
	C13.05,2.81,13.708,5.795,9.93,7.304C7.367,8.327,2.758,8.103,0,5.609c0,2.063,6.547,7.558,13.709,7.281
	C18.852,12.687,21.337,9.949,22.489,8.24L22.489,8.24z"/>
</svg>
