<?xml version="1.0" encoding="iso-8859-1"?>
<!-- Generator: Adobe Illustrator 21.1.0, SVG Export Plug-In . SVG Version: 6.00 Build 0)  -->
<svg version="1.1" id="Layer_2" xmlns="http://www.w3.org/2000/svg" xmlns:xlink="http://www.w3.org/1999/xlink" x="0px" y="0px"
	 viewBox="0 0 141.666 139.541" style="enable-background:new 0 0 141.666 139.541;" xml:space="preserve">
<g>
	<path style="fill:#FFFFFF;" d="M71.833,21.463V1c0-0.553-0.447-1-1-1c-0.553,0-1,0.447-1,1v20.463c0.334-0.007,0.665-0.025,1-0.025
		C71.168,21.438,71.499,21.456,71.833,21.463z"/>
	<path style="fill:#FFFFFF;" d="M45.768,28.437c0.568-0.346,1.149-0.674,1.733-0.997L37.263,9.741
		c-0.275-0.479-0.887-0.644-1.366-0.364c-0.478,0.276-0.642,0.888-0.364,1.366L45.768,28.437z"/>
	<path style="fill:#FFFFFF;" d="M10.502,34.727c-0.278,0.478-0.115,1.089,0.362,1.366l17.682,10.271
		c0.323-0.583,0.652-1.163,0.999-1.73L11.868,34.364C11.391,34.088,10.779,34.249,10.502,34.727z"/>
	<path style="fill:#FFFFFF;" d="M106.41,8.521c-0.478-0.277-1.089-0.116-1.366,0.362l-10.804,18.6c0.583,0.324,1.162,0.653,1.73,1
		l10.802-18.596C107.051,9.409,106.888,8.798,106.41,8.521z"/>
	<path style="fill:#FFFFFF;" d="M131.782,35.668c0.478-0.276,0.642-0.888,0.364-1.366c-0.275-0.479-0.886-0.645-1.366-0.364
		l-18.613,10.768c0.346,0.568,0.674,1.149,0.997,1.733L131.782,35.668z"/>
	<path style="fill:#FFFFFF;" d="M22.5,69.771c0-0.335,0.018-0.666,0.025-1H1c-0.553,0-1,0.447-1,1c0,0.553,0.447,1,1,1h21.525
		C22.518,70.437,22.5,70.105,22.5,69.771z"/>
	<path style="fill:#FFFFFF;" d="M140.666,68.771h-21.525c0.007,0.334,0.025,0.665,0.025,1s-0.019,0.666-0.025,1h21.525
		c0.553,0,1-0.447,1-1C141.666,69.218,141.219,68.771,140.666,68.771z"/>
	<path style="fill:#FFFFFF;" d="M130.802,103.448L113.12,93.178c-0.323,0.584-0.653,1.163-1,1.731l17.678,10.269
		c0.158,0.092,0.33,0.136,0.501,0.136c0.345,0,0.68-0.179,0.865-0.498C131.442,104.337,131.279,103.726,130.802,103.448z"/>
	<path style="fill:#FFFFFF;" d="M9.884,103.873c-0.478,0.276-0.642,0.888-0.364,1.366c0.185,0.32,0.521,0.499,0.866,0.499
		c0.17,0,0.342-0.043,0.5-0.135l18.613-10.768c-0.346-0.568-0.674-1.149-0.997-1.733L9.884,103.873z"/>
	<path style="fill:#FFFFFF;" d="M95.898,111.104c-0.568,0.346-1.149,0.674-1.733,0.997l10.238,17.698
		c0.185,0.32,0.521,0.499,0.866,0.499c0.17,0,0.342-0.043,0.5-0.135c0.478-0.276,0.642-0.888,0.364-1.366L95.898,111.104z"/>
	<path style="fill:#FFFFFF;" d="M34.893,129.654c-0.278,0.478-0.115,1.089,0.362,1.366c0.158,0.092,0.33,0.136,0.501,0.136
		c0.345,0,0.68-0.179,0.865-0.498l10.804-18.6c-0.583-0.324-1.162-0.653-1.73-1L34.893,129.654z"/>
	<path style="fill:#FFFFFF;" d="M69.833,118.078v20.463c0,0.553,0.447,1,1,1c0.553,0,1-0.447,1-1v-20.463
		c-0.334,0.007-0.665,0.025-1,0.025C70.498,118.104,70.167,118.085,69.833,118.078z"/>
	<path style="fill:#FFFFFF;" d="M104.744,51.887c0.717-0.415,0.962-1.333,0.548-2.05c-0.415-0.717-1.333-0.963-2.05-0.548
		L74.81,65.736l0,0c-1.023-1.009-2.427-1.633-3.977-1.633c-1.547,0-2.948,0.622-3.971,1.627L46.519,53.912
		c-0.716-0.416-1.634-0.172-2.051,0.543c-0.416,0.717-0.173,1.635,0.543,2.051l20.347,11.82c-0.121,0.462-0.192,0.944-0.192,1.444
		c0,3.13,2.537,5.667,5.667,5.667c3.13,0,5.667-2.537,5.667-5.667c0-0.497-0.07-0.976-0.191-1.435L104.744,51.887z M75.343,66.349
		c-0.02-0.025-0.037-0.052-0.058-0.077C75.306,66.297,75.323,66.323,75.343,66.349z M75.736,66.938
		c-0.007-0.012-0.015-0.023-0.021-0.035C75.722,66.914,75.729,66.926,75.736,66.938z M65.956,66.894
		c-0.007,0.013-0.015,0.024-0.022,0.037C65.941,66.918,65.949,66.906,65.956,66.894z M66.382,66.27
		c-0.017,0.021-0.032,0.044-0.049,0.065C66.35,66.313,66.365,66.291,66.382,66.27z M70.833,72.438c-1.471,0-2.667-1.196-2.667-2.667
		s1.196-2.667,2.667-2.667c1.471,0,2.667,1.196,2.667,2.667S72.304,72.438,70.833,72.438z"/>
</g>
</svg>
