<?xml version="1.0" encoding="iso-8859-1"?>
<!-- Generator: Adobe Illustrator 21.1.0, SVG Export Plug-In . SVG Version: 6.00 Build 0)  -->
<svg version="1.1" id="Layer_2" xmlns="http://www.w3.org/2000/svg" xmlns:xlink="http://www.w3.org/1999/xlink" x="0px" y="0px"
	 viewBox="0 0 94.944 94.163" style="enable-background:new 0 0 94.944 94.163;" xml:space="preserve">
<g>
	<g>
		<path style="fill-rule:evenodd;clip-rule:evenodd;fill:#80644F;" d="M90.284,28.39c-2.102-4.839-4.99-9.26-8.508-13.097
			c-0.647,1.26-1.308,2.519-1.975,3.778c2.577,3.008,4.745,6.373,6.422,10.013C87.563,28.843,88.917,28.618,90.284,28.39z"/>
	</g>
	<g>
		<path style="fill-rule:evenodd;clip-rule:evenodd;fill:#80644F;" d="M90.009,43.564c0.094,1.161,0.155,2.332,0.155,3.518
			c0,23.793-19.288,43.081-43.081,43.081c-0.786,0-1.566-0.024-2.342-0.065c0.134,0.57,0.229,1.176,0.219,1.84
			c-0.011,0.756-0.158,1.476-0.404,2.155c0.837,0.045,1.679,0.07,2.527,0.07c25.961,0,47.081-21.121,47.081-47.081
			c0-2.089-0.151-4.142-0.416-6.159C92.56,41.876,91.31,42.753,90.009,43.564z"/>
	</g>
	<g>
		<path style="fill-rule:evenodd;clip-rule:evenodd;fill:#80644F;" d="M4,47.082C4,23.288,23.288,4,47.082,4
			c7.861,0,15.224,2.116,21.568,5.793c1.085-0.859,2.211-1.736,3.362-2.624C64.777,2.634,56.233,0,47.082,0
			C21.121,0,0,21.121,0,47.082c0,19.806,12.3,36.783,29.657,43.725c-0.4-1.499-0.562-3.068-0.569-4.582
			C14.283,79.407,4,64.45,4,47.082z"/>
	</g>
	<g>
		<path style="fill-rule:evenodd;clip-rule:evenodd;fill:#80644F;" d="M38.77,84.907c7.738-2.722,16.312-9.663,14.539-19.826
			c-0.898-5.145-4.48-5.001-7.27-9.252C60.477,43.831,70.252,27.172,79.083,9.567c-0.661,0-1.322,0-1.983,0
			c-7.446,5.661-21.91,16.983-28.417,26.435c-2.603,3.78-4.593,9.313-7.27,13.878c-4.542,7.745-15.125,21.231-6.609,31.061
			c-1.379,4.619-1.204,12.388,3.965,12.557C42.039,91.771,37.385,88.894,38.77,84.907z M47.082,46.081
			c1.427,0,2.583,1.157,2.583,2.583s-1.157,2.583-2.583,2.583s-2.583-1.157-2.583-2.583S45.655,46.081,47.082,46.081z
			 M36.787,74.994c-1.857-9.002,7.01-16.95,11.896-9.252C48.943,73.16,42.502,81.51,36.787,74.994z"/>
	</g>
	<g>
		<path style="fill-rule:evenodd;clip-rule:evenodd;fill:#80644F;" d="M55.953,51.203C69.915,46,86.53,43.45,94.944,32.698
			c-9.415,1.379-18.12,3.469-27.756,4.626C65.052,43.56,60.156,47.035,55.953,51.203z"/>
	</g>
	<g>
		<path style="fill-rule:evenodd;clip-rule:evenodd;fill:#80644F;" d="M12.335,39.968c-4.223,12.248,8.425,15.99,21.809,13.878
			c3.784-4.815,5.85-9.964,1.983-15.861C31.233,30.524,15.216,31.612,12.335,39.968z M17.622,47.237
			c-5.122-10.84,12.89-11.066,14.539-5.287C34.339,49.583,23.063,49.982,17.622,47.237z"/>
	</g>
</g>
</svg>
