<?xml version="1.0" encoding="iso-8859-1"?>
<!-- Generator: Adobe Illustrator 21.1.0, SVG Export Plug-In . SVG Version: 6.00 Build 0)  -->
<svg version="1.1" id="Layer_1" xmlns="http://www.w3.org/2000/svg" xmlns:xlink="http://www.w3.org/1999/xlink" x="0px" y="0px"
	 viewBox="0 0 62.398 78.489" style="enable-background:new 0 0 62.398 78.489;" xml:space="preserve">
<path style="fill:#826550;" d="M62.398,42c0-5.213-2.367-7.775-3.599-9.961c-0.905-1.606-3.977-10.752-4.2-17.64
	C54.533,9.495,52.907,1.954,51.719,0c-0.864,0-1.521,7.781-2.28,11.639c-1.428,7.043-3.766,8.935-4.438,9
	c-0.758-2.809-4.113-7.363-13.677-7.725c-0.048-0.017-0.083-0.029-0.125-0.043c-0.043,0.014-0.078,0.026-0.126,0.043
	c-9.562,0.36-12.918,4.916-13.675,7.725c-0.674-0.066-3.011-1.957-4.438-9C12.2,7.782,11.544,0,10.679,0
	C9.491,1.954,7.866,9.495,7.8,14.4c-0.226,6.888-3.294,16.032-4.2,17.64C2.368,34.225,0.001,36.788,0.001,42
	c0,3.744,5.199,7.203,5.639,11.398c0.125,1.223-0.031,2.35,0.12,3.361c2.003,17.483,17.867,21.728,25.438,21.728l0,0l0,0
	c7.573,0,23.438-4.244,25.44-21.728c0.151-1.012-0.005-2.139,0.12-3.361C57.198,49.204,62.398,45.747,62.398,42z M33.238,26.76
	c-0.687-0.135-3.394-0.135-4.08,0c-1.731,0.34-5.761,0.988-5.761-1.08c0-1.068,6.72-2.295,7.801-2.295
	c1.08,0,7.801,1.228,7.802,2.295C39,27.748,34.971,27.1,33.238,26.76z"/>
</svg>
