<?xml version="1.0" encoding="iso-8859-1"?>
<!-- Generator: Adobe Illustrator 21.1.0, SVG Export Plug-In . SVG Version: 6.00 Build 0)  -->
<svg version="1.1" id="Layer_1" xmlns="http://www.w3.org/2000/svg" xmlns:xlink="http://www.w3.org/1999/xlink" x="0px" y="0px"
	 viewBox="0 0 44.658 104.782" style="enable-background:new 0 0 44.658 104.782;" xml:space="preserve">
<path style="fill:#826550;" d="M43.39,0c-0.04,0-0.079,0-0.118,0c-2.816,21.525-5.382,22.56-6.961,22.68
	c-1.427,0.109-3.644-1.772-4.921-2.52c-1.489-0.873-4.077-2.545-9.061-2.545s-7.572,1.673-9.061,2.545
	c-1.277,0.748-3.494,2.629-4.92,2.52C6.768,22.561,4.204,21.526,1.389,0c-0.04,0-0.08,0-0.119,0
	c-2.073,12.208-1.561,50.203,1.199,63.6c2.61,18.52,10.11,35.104,13.439,39.6c0.683,1.039,3.533,1.566,6.421,1.582
	c2.887-0.016,5.737-0.543,6.421-1.582c3.329-4.495,10.829-21.08,13.439-39.6C44.947,50.204,45.462,12.208,43.39,0z M22.329,28.151
	c-3.396,0-6.688,0.183-10.142,0.529c1.135-1.754,8.991-3.24,10.142-3.449c1.149,0.209,9.006,1.695,10.141,3.449
	C29.016,28.333,25.724,28.151,22.329,28.151z"/>
</svg>
