<?xml version="1.0" encoding="iso-8859-1"?>
<!-- Generator: Adobe Illustrator 21.1.0, SVG Export Plug-In . SVG Version: 6.00 Build 0)  -->
<svg version="1.1" id="Layer_1" xmlns="http://www.w3.org/2000/svg" xmlns:xlink="http://www.w3.org/1999/xlink" x="0px" y="0px"
	 viewBox="0 0 94.164 88.621" style="enable-background:new 0 0 94.164 88.621;" xml:space="preserve">
<g>
	<g>
		<path style="fill:#826550;" d="M87.189,22.424c-0.57,1.734-1.131,3.478-1.68,5.223c2.969,5.844,4.651,12.444,4.651,19.435
			c0,14.241-6.951,26.885-17.634,34.732c1.162,0.707,2.22,1.582,3.14,2.666c11.239-8.604,18.494-22.15,18.494-37.398
			C94.162,38.04,91.607,29.596,87.189,22.424z"/>
		<path style="fill:#826550;" d="M9.516,70.337c0.446,0,0.896,0.015,1.345,0.024C6.527,63.643,4,55.654,4,47.082
			C4,23.326,23.326,4,47.081,4c6.78,0,13.198,1.58,18.911,4.383c0.718-1.162,1.527-2.252,2.439-3.259C62.022,1.855,54.77,0,47.081,0
			C21.079,0,0,21.079,0,47.082c0,8.521,2.275,16.507,6.235,23.402C7.364,70.372,8.477,70.337,9.516,70.337z"/>
	</g>
</g>
<path style="fill:#826550;" d="M53.454,82.042c0.437-6.144-0.872-14.024,0.657-19.071c4.527-0.076,9.561,0.354,13.152-0.658
	c8.174-14.845,12.026-34.008,18.416-50.64c0-0.877,0-1.754,0-2.631c-0.675-3.054-3.753-3.702-6.578-4.604c-0.22,0-0.438,0-0.656,0
	c-10.6,3.43-11.957,16.104-14.467,27.622c-15.795-4.143-32.298-0.059-32.885,15.125c-4.528,0.076-7.984,1.225-9.865,3.946
	c-0.572,6.709,1.569,10.705,6.577,11.839c-1.238,5.338-3.641,9.512-7.234,12.493C14.167,76.076,4.936,73.859,1.5,77.439
	c0,0.877,0,1.752,0,2.629c3.151,3.863,12.855,1.178,19.072,1.975c6.593-3.93,8.458-12.588,11.838-19.729
	c4.674,0.367,10.865-0.781,14.468,0.656c0,6.577,0,13.153,0,19.729c-7.826,0.504-15.446,1.215-19.072,5.92
	c14.907,0,29.814,0,44.721,0C69.272,83.326,60.055,83.994,53.454,82.042z M37.67,47.186c0.684-11.704,15.366-11.687,25.648-8.548
	c0.103,4.721-0.517,10.163,1.314,13.153C57.591,50.938,47.555,47.389,37.67,47.186z"/>
</svg>
