<?xml version="1.0" encoding="iso-8859-1"?>
<!-- Generator: Adobe Illustrator 21.1.0, SVG Export Plug-In . SVG Version: 6.00 Build 0)  -->
<svg version="1.1" id="Layer_1" xmlns="http://www.w3.org/2000/svg" xmlns:xlink="http://www.w3.org/1999/xlink" x="0px" y="0px"
	 viewBox="0 0 57 97.682" style="enable-background:new 0 0 57 97.682;" xml:space="preserve">
<path style="fill:#826550;" d="M51.121,15.24c-0.396-5.453-0.61-10.853-2.521-15.24c-0.765,0-1.529,7.313-2.279,10.92
	c-1.478,7.14-3.715,8.283-4.439,8.28c-0.859-3.857-4.385-4.241-7.801-5.88c-1.207-0.579-2.311-1.052-3.602-1.199
	c-0.666-0.077-1.287,0.102-1.979,0.116c-0.69-0.016-1.314-0.193-1.98-0.116c-1.291,0.149-2.394,0.62-3.601,1.199
	c-3.416,1.639-6.941,2.021-7.801,5.88c-0.725,0.004-2.963-1.141-4.439-8.28c-0.75-3.605-1.515-10.92-2.279-10.92
	C6.489,4.388,6.274,9.786,5.88,15.24C5,38.778,0,51.528,0,62.399C0,88.465,11.708,97.68,28.5,97.68c16.791,0,28.5-9.215,28.5-35.281
	C57.001,51.528,52.001,38.778,51.121,15.24z M34.44,24.958c-2.793,1.174-5.354-0.709-5.879-0.719
	c-0.018-0.001-0.043,0.006-0.06,0.006c-0.018,0-0.042-0.007-0.061-0.006c-0.526,0.01-3.086,1.893-5.879,0.719
	c-0.785-3.583,2.396-4.042,5.94-3.904C32.046,20.916,35.226,21.376,34.44,24.958z"/>
</svg>
